SplineFontDB: 3.0
FontName: HexEncoding
FullName: HexEncoding
FamilyName: HexEncoding
Weight: Regular
Copyright: Copyright (c) 2016, kharkin
UComments: "2016-6-9: Created with FontForge (http://fontforge.org)"
Version: 001.000
ItalicAngle: 0
UnderlinePosition: -12
UnderlineWidth: 6
Ascent: 102
Descent: 26
InvalidEm: 0
LayerCount: 2
Layer: 0 0 "Back" 1
Layer: 1 0 "Fore" 0
XUID: [1021 321 -264523372 21903]
FSType: 0
OS2Version: 0
OS2_WeightWidthSlopeOnly: 0
OS2_UseTypoMetrics: 1
CreationTime: 1465462251
ModificationTime: 1465465137
PfmFamily: 17
TTFWeight: 400
TTFWidth: 5
LineGap: 12
VLineGap: 0
OS2TypoAscent: 0
OS2TypoAOffset: 1
OS2TypoDescent: 0
OS2TypoDOffset: 1
OS2TypoLinegap: 12
OS2WinAscent: 0
OS2WinAOffset: 1
OS2WinDescent: 0
OS2WinDOffset: 1
HheadAscent: 0
HheadAOffset: 1
HheadDescent: 0
HheadDOffset: 1
OS2Vendor: 'PfEd'
MarkAttachClasses: 1
DEI: 91125
LangName: 1033
DesignSize: 640
Encoding: ISO8859-1
UnicodeInterp: none
NameList: AGL For New Fonts
DisplaySize: -48
AntiAlias: 1
FitToEm: 0
WinInfo: 0 32 11
BeginPrivate: 0
EndPrivate
TeXData: 1 67108864 0 346030 173015 115343 0 1048576 115343 783286 444596 497025 792723 393216 433062 380633 303038 157286 324010 404750 52429 2506097 1059062 262144
BeginChars: 256 22

StartChar: zero
Encoding: 48 48 0
Width: 128
VWidth: 0
Flags: HW
LayerCount: 2
Back
Fore
SplineSet
60 98 m 4
 20 82 l 29
 2 38 l 29
 20 -4 l 29
 64 -23 l 29
 108 -5 l 29
 125 38 l 29
 108 82 l 29
 67 99 l 29
 67 96 l 29
 105 80 l 29
 122 39 l 29
 106 -3 l 29
 64 -20 l 29
 22 -3 l 29
 5 38 l 29
 22 80 l 29
 60 96 l 29
 64 40 l 29
 67 99 l 29
 67 99 68 102 64 102 c 4
 60 102 60 98 60 98 c 4
EndSplineSet
Validated: 37
EndChar

StartChar: one
Encoding: 49 49 1
Width: 128
VWidth: 0
Flags: HW
LayerCount: 2
Fore
SplineSet
103 84 m 4
 63 100 l 29
 19 82 l 29
 2 40 l 29
 20 -4 l 29
 63 -22 l 29
 106 -4 l 29
 124 39 l 29
 108 79 l 29
 106 77 l 29
 121 39 l 29
 104 -2 l 29
 63 -20 l 29
 21 -2 l 29
 4 39 l 29
 21 81 l 29
 63 98 l 29
 101 82 l 29
 64 40 l 29
 108 79 l 29
 108 79 110 81 108 84 c 4
 106 87 103 84 103 84 c 4
EndSplineSet
Validated: 37
EndChar

StartChar: two
Encoding: 50 50 2
Width: 128
VWidth: 0
Flags: HW
LayerCount: 2
Fore
SplineSet
123.5 44 m 4
 106.5 84 l 29
 62.5 102 l 29
 20.5 84 l 29
 1.5 40 l 29
 19.5 -4 l 29
 62.5 -21 l 29
 106.5 -4 l 29
 123.5 37 l 29
 120.5 37 l 29
 104.5 -1 l 29
 63.5 -18 l 29
 21.5 -2 l 29
 4.5 40 l 29
 21.5 82 l 29
 63.5 99 l 29
 104.5 82 l 29
 120.5 43 l 29
 64.5 40 l 29
 123.5 37 l 29
 123.5 37 126.5 36 126.5 40 c 4
 126.5 44 123.5 44 123.5 44 c 4
EndSplineSet
EndChar

StartChar: three
Encoding: 51 51 3
Width: 128
VWidth: 0
Flags: HW
LayerCount: 2
Fore
SplineSet
108 1 m 4
 124 41 l 29
 106 84 l 29
 64 102 l 29
 20 84 l 29
 2 41 l 29
 20 -2 l 29
 63 -20 l 29
 103 -4 l 29
 101 -2 l 29
 63 -17 l 29
 22 -0 l 29
 4 41 l 29
 22 83 l 29
 63 100 l 29
 105 83 l 29
 122 41 l 29
 106 3 l 29
 64 40 l 29
 103 -4 l 29
 103 -4 105 -6 108 -4 c 4
 111 -2 108 1 108 1 c 4
EndSplineSet
Validated: 37
EndChar

StartChar: four
Encoding: 52 52 4
Width: 128
VWidth: 0
Flags: HW
LayerCount: 2
Fore
SplineSet
68 -19 m 4
 108 -2 l 29
 126 42 l 29
 108 84 l 29
 64 102 l 29
 20 85 l 29
 3 42 l 29
 20 -2 l 29
 61 -19 l 29
 61 -16 l 29
 23 0 l 29
 6 41 l 29
 22 83 l 29
 64 100 l 29
 106 83 l 29
 123 41 l 29
 106 -0 l 29
 68 -16 l 29
 64 40 l 29
 61 -19 l 29
 61 -19 60 -22 64 -22 c 4
 68 -22 68 -19 68 -19 c 4
EndSplineSet
Validated: 37
EndChar

StartChar: five
Encoding: 53 53 5
Width: 128
VWidth: 0
Flags: HW
LayerCount: 2
Fore
SplineSet
25 -4 m 4
 65 -21 l 29
 109 -2 l 29
 126 40 l 29
 108 84 l 29
 65 102 l 29
 22 84 l 29
 4 41 l 29
 20 1 l 29
 22 2 l 29
 7 41 l 29
 24 82 l 29
 65 100 l 29
 107 82 l 29
 124 41 l 29
 107 -1 l 29
 65 -18 l 29
 27 -2 l 29
 64 40 l 29
 20 1 l 29
 20 1 18 -1 20 -4 c 4
 22 -7 25 -4 25 -4 c 4
EndSplineSet
Validated: 37
EndChar

StartChar: six
Encoding: 54 54 6
Width: 128
VWidth: 0
Flags: HW
LayerCount: 2
Fore
SplineSet
5 36 m 4
 22 -4 l 29
 66 -22 l 29
 108 -4 l 29
 127 40 l 29
 109 84 l 29
 66 101 l 29
 22 84 l 29
 5 43 l 29
 8 43 l 29
 24 81 l 29
 65 98 l 29
 107 81 l 29
 124 40 l 29
 107 -2 l 29
 65 -19 l 29
 24 -2 l 29
 8 36 l 29
 64 40 l 29
 5 43 l 29
 5 43 2 44 2 40 c 4
 2 36 5 36 5 36 c 4
EndSplineSet
Validated: 37
EndChar

StartChar: seven
Encoding: 55 55 7
Width: 128
VWidth: 0
Flags: HW
LayerCount: 2
Fore
SplineSet
20 79 m 4
 4 39 l 29
 22 -5 l 29
 64 -22 l 29
 108 -4 l 29
 126 39 l 29
 108 82 l 29
 65 100 l 29
 25 84 l 29
 27 82 l 29
 65 97 l 29
 106 80 l 29
 124 39 l 29
 106 -3 l 29
 65 -20 l 29
 23 -3 l 29
 6 39 l 29
 22 77 l 29
 64 40 l 29
 25 84 l 29
 25 84 23 86 20 84 c 4
 17 82 20 79 20 79 c 4
EndSplineSet
Validated: 37
EndChar

StartChar: eight
Encoding: 56 56 8
Width: 128
VWidth: 0
Flags: HW
LayerCount: 2
Back
Fore
SplineSet
60 99 m 4
 21 82 l 29
 2 38 l 29
 20 -5 l 29
 64 -23 l 29
 108 -5 l 29
 126 39 l 29
 108 82 l 29
 67 99 l 29
 67 96 l 29
 105 80 l 29
 122 38 l 29
 106 -3 l 29
 64 -20 l 29
 22 -3 l 29
 5 39 l 29
 22 80 l 29
 60 96 l 29
 61 90 l 29
 61 90 60 88 64 88 c 4
 68 88 67 90 67 90 c 29
 67 99 l 29
 67 99 67 102 64 102 c 4
 61 102 60 99 60 99 c 4
EndSplineSet
Validated: 5
EndChar

StartChar: nine
Encoding: 57 57 9
Width: 128
VWidth: 0
Flags: HW
LayerCount: 2
Fore
SplineSet
103 84 m 4
 64 100 l 29
 20 82 l 29
 2 39 l 29
 20 -5 l 29
 64 -22 l 29
 107 -5 l 29
 125 39 l 29
 109 79 l 29
 106 77 l 29
 122 39 l 29
 105 -3 l 29
 64 -20 l 29
 22 -3 l 29
 5 39 l 29
 22 81 l 29
 63 98 l 29
 102 82 l 29
 98 78 l 29
 98 78 96 76 98 74 c 4
 100 72 102 74 102 74 c 29
 108 79 l 29
 108 79 110 82 108 84 c 4
 106 86 103 84 103 84 c 4
EndSplineSet
Validated: 41
EndChar

StartChar: a
Encoding: 97 97 10
Width: 128
VWidth: 0
Flags: HW
LayerCount: 2
Fore
SplineSet
123 43 m 4
 106 83 l 29
 63 101 l 29
 20 83 l 29
 1 40 l 29
 20 -4 l 29
 63 -22 l 29
 106 -4 l 29
 123 36 l 29
 120 36 l 29
 104 -2 l 29
 63 -19 l 29
 22 -2 l 29
 4 39 l 29
 22 81 l 29
 63 98 l 29
 104 81 l 29
 120 43 l 29
 115 42 l 29
 115 42 112 43 112 39 c 4
 112 35 115 36 115 36 c 29
 123 36 l 29
 123 36 126 36 126 39 c 4
 126 42 123 43 123 43 c 4
EndSplineSet
Validated: 37
EndChar

StartChar: b
Encoding: 98 98 11
Width: 128
VWidth: 0
Flags: HW
LayerCount: 2
Fore
SplineSet
108 -1 m 4
 125 39 l 29
 107 82 l 29
 64 100 l 29
 20 83 l 29
 2 39 l 29
 20 -5 l 29
 63 -23 l 29
 104 -6 l 29
 102 -4 l 29
 64 -20 l 29
 22 -2 l 29
 5 39 l 29
 22 80 l 29
 64 98 l 29
 105 80 l 29
 122 39 l 29
 107 1 l 29
 102 4 l 29
 102 4 100 6 98 4 c 4
 96 2 98 0 98 0 c 29
 104 -6 l 29
 104 -6 106 -8 108 -6 c 4
 110 -4 108 -1 108 -1 c 4
EndSplineSet
Validated: 37
EndChar

StartChar: c
Encoding: 99 99 12
Width: 128
VWidth: 0
Flags: HW
LayerCount: 2
Fore
SplineSet
67 -22 m 4
 107 -6 l 29
 125 38 l 29
 107 81 l 29
 64 100 l 29
 20 81 l 29
 2 38 l 29
 20 -6 l 29
 60 -23 l 29
 60 -20 l 29
 22 -4 l 29
 5 38 l 29
 22 79 l 29
 64 96 l 29
 105 79 l 29
 122 38 l 29
 106 -4 l 29
 67 -20 l 29
 66 -14 l 29
 66 -14 67 -12 63 -12 c 4
 59 -12 61 -14 61 -14 c 29
 60 -23 l 29
 60 -23 61 -26 64 -26 c 4
 67 -26 67 -22 67 -22 c 4
EndSplineSet
Validated: 5
EndChar

StartChar: d
Encoding: 100 100 13
Width: 128
VWidth: 0
Flags: HW
LayerCount: 2
Fore
SplineSet
23 -7 m 4
 63 -23 l 29
 107 -5 l 29
 125 38 l 29
 107 82 l 29
 63 100 l 29
 20 82 l 29
 2 38 l 29
 18 -2 l 29
 20 0 l 29
 5 38 l 29
 22 80 l 29
 63 97 l 29
 105 80 l 29
 122 38 l 29
 105 -3 l 29
 63 -21 l 29
 25 -5 l 29
 29 -0 l 29
 29 -0 30 2 28 4 c 4
 26 6 24 4 24 4 c 29
 18 -2 l 29
 18 -2 16 -4 18 -6 c 4
 20 -8 23 -7 23 -7 c 4
EndSplineSet
Validated: 37
EndChar

StartChar: e
Encoding: 101 101 14
Width: 128
VWidth: 0
Flags: HW
LayerCount: 2
Fore
SplineSet
4 34 m 4
 20 -5 l 29
 64 -23 l 29
 107 -6 l 29
 126 38 l 29
 107 82 l 29
 64 100 l 29
 20 82 l 29
 3 42 l 29
 6 41 l 29
 22 80 l 29
 64 97 l 29
 105 80 l 29
 122 38 l 29
 105 -3 l 29
 64 -20 l 29
 22 -4 l 29
 6 35 l 29
 12 35 l 29
 12 35 14 34 14 38 c 4
 14 42 12 41 12 41 c 29
 3 42 l 29
 3 42 0 41 0 38 c 4
 0 35 4 34 4 34 c 4
EndSplineSet
Validated: 5
EndChar

StartChar: f
Encoding: 102 102 15
Width: 128
VWidth: 0
Flags: HW
LayerCount: 2
Fore
SplineSet
18 79 m 4
 2 39 l 29
 20 -5 l 29
 63 -23 l 29
 107 -5 l 29
 125 39 l 29
 107 82 l 29
 64 100 l 29
 23 84 l 29
 25 82 l 29
 63 97 l 29
 105 80 l 29
 122 39 l 29
 105 -3 l 29
 63 -20 l 29
 22 -3 l 29
 4 38 l 29
 20 77 l 29
 25 73 l 29
 25 73 27 72 29 74 c 4
 31 76 29 77 29 77 c 29
 23 84 l 29
 23 84 21 86 19 84 c 4
 17 82 18 79 18 79 c 4
EndSplineSet
Validated: 37
EndChar

StartChar: A
Encoding: 65 65 16
Width: 128
VWidth: 0
Flags: HW
LayerCount: 2
Fore
SplineSet
123 43 m 4
 106 83 l 29
 63 101 l 29
 20 83 l 29
 1 40 l 29
 20 -4 l 29
 63 -22 l 29
 106 -4 l 29
 123 36 l 29
 120 36 l 29
 104 -2 l 29
 63 -19 l 29
 22 -2 l 29
 4 39 l 29
 22 81 l 29
 63 98 l 29
 104 81 l 29
 120 43 l 29
 115 42 l 29
 115 42 112 43 112 39 c 4
 112 35 115 36 115 36 c 29
 123 36 l 29
 123 36 126 36 126 39 c 4
 126 42 123 43 123 43 c 4
EndSplineSet
Validated: 37
EndChar

StartChar: B
Encoding: 66 66 17
Width: 128
VWidth: 0
Flags: HW
LayerCount: 2
Fore
SplineSet
108 -1 m 4
 125 39 l 29
 107 82 l 29
 64 100 l 29
 20 83 l 29
 2 39 l 29
 20 -5 l 29
 63 -23 l 29
 104 -6 l 29
 102 -4 l 29
 64 -20 l 29
 22 -2 l 29
 5 39 l 29
 22 80 l 29
 64 98 l 29
 105 80 l 29
 122 39 l 29
 107 1 l 29
 102 4 l 29
 102 4 100 6 98 4 c 4
 96 2 98 0 98 0 c 29
 104 -6 l 29
 104 -6 106 -8 108 -6 c 4
 110 -4 108 -1 108 -1 c 4
EndSplineSet
Validated: 37
EndChar

StartChar: C
Encoding: 67 67 18
Width: 128
VWidth: 0
Flags: HW
LayerCount: 2
Fore
SplineSet
67 -22 m 4
 107 -6 l 29
 125 38 l 29
 107 81 l 29
 64 100 l 29
 20 81 l 29
 2 38 l 29
 20 -6 l 29
 60 -23 l 29
 60 -20 l 29
 22 -4 l 29
 5 38 l 29
 22 79 l 29
 64 96 l 29
 105 79 l 29
 122 38 l 29
 106 -4 l 29
 67 -20 l 29
 66 -14 l 29
 66 -14 67 -12 63 -12 c 4
 59 -12 61 -14 61 -14 c 29
 60 -23 l 29
 60 -23 61 -26 64 -26 c 4
 67 -26 67 -22 67 -22 c 4
EndSplineSet
Validated: 5
EndChar

StartChar: D
Encoding: 68 68 19
Width: 128
VWidth: 0
Flags: HW
LayerCount: 2
Fore
SplineSet
23 -7 m 4
 63 -23 l 29
 107 -5 l 29
 125 38 l 29
 107 82 l 29
 63 100 l 29
 20 82 l 29
 2 38 l 29
 18 -2 l 29
 20 0 l 29
 5 38 l 29
 22 80 l 29
 63 97 l 29
 105 80 l 29
 122 38 l 29
 105 -3 l 29
 63 -21 l 29
 25 -5 l 29
 29 -0 l 29
 29 -0 30 2 28 4 c 4
 26 6 24 4 24 4 c 29
 18 -2 l 29
 18 -2 16 -4 18 -6 c 4
 20 -8 23 -7 23 -7 c 4
EndSplineSet
Validated: 37
EndChar

StartChar: E
Encoding: 69 69 20
Width: 128
VWidth: 0
Flags: HW
LayerCount: 2
Fore
SplineSet
4 34 m 4
 20 -5 l 29
 64 -23 l 29
 107 -6 l 29
 126 38 l 29
 107 82 l 29
 64 100 l 29
 20 82 l 29
 3 42 l 29
 6 41 l 29
 22 80 l 29
 64 97 l 29
 105 80 l 29
 122 38 l 29
 105 -3 l 29
 64 -20 l 29
 22 -4 l 29
 6 35 l 29
 12 35 l 29
 12 35 14 34 14 38 c 4
 14 42 12 41 12 41 c 29
 3 42 l 29
 3 42 0 41 0 38 c 4
 0 35 4 34 4 34 c 4
EndSplineSet
Validated: 5
EndChar

StartChar: F
Encoding: 70 70 21
Width: 128
VWidth: 0
Flags: HW
LayerCount: 2
Fore
SplineSet
18 79 m 4
 2 39 l 29
 20 -5 l 29
 63 -23 l 29
 107 -5 l 29
 125 39 l 29
 107 82 l 29
 64 100 l 29
 23 84 l 29
 25 82 l 29
 63 97 l 29
 105 80 l 29
 122 39 l 29
 105 -3 l 29
 63 -20 l 29
 22 -3 l 29
 4 38 l 29
 20 77 l 29
 25 73 l 29
 25 73 27 72 29 74 c 4
 31 76 29 77 29 77 c 29
 23 84 l 29
 23 84 21 86 19 84 c 4
 17 82 18 79 18 79 c 4
EndSplineSet
Validated: 37
EndChar
